<svg width="16" height="16" viewBox="0 0 16 16" fill="none" xmlns="http://www.w3.org/2000/svg">
<g clip-path="url(#clip0_301_11401)">
<path d="M8.10145 16C6.80418 15.9766 5.57098 15.7125 4.41552 15.1356C3.5962 14.7266 2.89086 14.1687 2.27208 13.5057C1.53278 12.7135 0.971042 11.8132 0.588862 10.809C0.323642 10.1121 0.126758 9.39764 0.0373287 8.65542C-0.043683 7.983 0.0132628 7.32297 0.148348 6.66265C0.332754 5.76079 0.643629 4.90366 1.08216 4.09222C1.61537 3.10576 2.31358 2.24989 3.22006 1.56236C4.05157 0.931759 4.97963 0.502032 5.99931 0.25227C6.77982 0.0610757 7.57201 -0.0219848 8.3739 0.00492758C9.86262 0.0549769 11.2225 0.497289 12.4521 1.32054C13.4732 2.00409 14.269 2.88659 14.8769 3.93636C15.4211 4.87607 15.7711 5.88054 15.9236 6.9491C16.0538 7.86083 16.0141 8.76743 15.8312 9.67141C15.6089 10.7708 15.1594 11.7709 14.4934 12.679C13.7091 13.7485 12.7156 14.5827 11.5147 15.1783C10.8009 15.5323 10.0497 15.781 9.25651 15.8918C8.87404 15.9452 8.48661 15.9649 8.10145 16ZM8.06541 1.03922C7.43969 1.04183 6.82537 1.12218 6.22185 1.27843C4.58785 1.70147 3.30533 2.6042 2.35913 3.97257C1.76195 4.83619 1.39521 5.7879 1.1916 6.80476C0.966388 7.92937 1.04374 9.03965 1.38699 10.1308C1.80879 11.4714 2.59722 12.5735 3.71326 13.4497C4.7986 14.3019 6.03298 14.8216 7.42157 14.9523C8.86691 15.0885 10.2149 14.7667 11.4585 14.0405C12.5947 13.377 13.4789 12.4707 14.1131 11.3346C14.7667 10.1634 15.0653 8.90828 14.958 7.57912C14.8101 5.74443 14.0636 4.16889 12.7056 2.88659C11.4137 1.66682 9.86103 1.05683 8.0655 1.03931L8.06541 1.03922Z" fill="#DB2727"/>
<path d="M3.12517 7.03758C3.31681 7.12897 3.48636 7.20884 3.65502 7.29054C3.94153 7.42927 4.24141 7.53992 4.5615 7.54156C4.80384 7.54282 5.04638 7.48861 5.28912 7.46141C5.52839 7.43459 5.76776 7.40777 6.00762 7.38744C6.06883 7.38231 6.1338 7.39625 6.19441 7.41155C6.39228 7.46141 6.45537 7.66557 6.30622 7.80343C6.22847 7.87535 6.12627 7.9347 6.02426 7.96674C5.45302 8.14593 4.86673 8.17091 4.27528 8.09675C3.89062 8.04854 3.52597 7.9345 3.19272 7.7374C3.10774 7.68716 3.03664 7.68629 2.95136 7.73498C2.88036 7.77554 2.80083 7.8041 2.7219 7.8284C2.55987 7.87835 2.43786 7.8374 2.37339 7.7193C2.28079 7.5496 2.29862 7.46383 2.45202 7.3372C2.47292 7.31997 2.49243 7.301 2.51125 7.28154C2.5158 7.27679 2.51491 7.26702 2.51967 7.24523C2.46005 7.22539 2.39805 7.20622 2.33704 7.18425C2.13966 7.113 2.10094 6.98599 2.23424 6.83148C2.46985 6.55868 2.78855 6.41463 3.12151 6.2943C4.1195 5.93359 5.07242 6.05644 5.99208 6.54774C6.17589 6.6459 6.36633 6.73254 6.54727 6.83535C6.62759 6.88095 6.6989 6.94736 6.76188 7.01532C6.85775 7.11871 6.85181 7.17069 6.75376 7.27515C6.62571 7.41174 6.45992 7.44127 6.29691 7.37776C6.08151 7.29383 5.8761 7.18396 5.6708 7.07718C5.46946 6.97234 5.45896 6.96933 5.29555 7.12374C5.23583 7.18018 5.17839 7.23904 5.11758 7.29432C4.80929 7.57438 4.36511 7.54437 4.10623 7.21832C4.02214 7.11242 3.96649 6.9854 3.88973 6.8734C3.8626 6.8338 3.8105 6.78269 3.77099 6.78356C3.53548 6.78918 3.32572 6.86904 3.12527 7.03768L3.12517 7.03758ZM4.61943 6.92645C4.654 6.86604 4.69024 6.831 4.68351 6.80815C4.67133 6.76681 4.6334 6.73274 4.60626 6.69566C4.57972 6.72393 4.52911 6.75491 4.53218 6.77979C4.53713 6.82122 4.57645 6.85868 4.61943 6.92645Z" fill="#DB2727"/>
<path d="M13.0755 7.25164C13.0034 7.19936 12.9504 7.14602 12.8859 7.11746C12.7529 7.05851 12.6155 7.00701 12.4759 6.96557C12.4402 6.95502 12.3751 6.98116 12.3481 7.01136C12.2366 7.13663 12.1347 7.27003 12.0288 7.40014C11.9269 7.52541 11.804 7.60121 11.63 7.57846C11.5523 7.56829 11.4705 7.56703 11.3931 7.57855C11.1973 7.60769 11.0797 7.50866 10.9852 7.36122C10.7343 6.96964 10.7657 7.0616 10.4286 7.21204C10.292 7.27303 10.1582 7.35154 10.0142 7.38194C9.84381 7.41795 9.66307 7.42657 9.48847 7.41737C9.31803 7.40846 9.24256 7.23905 9.35012 7.10546C9.41706 7.0223 9.52115 6.95783 9.62157 6.91223C9.99058 6.74456 10.3648 6.58802 10.7374 6.4281C10.8279 6.38928 10.9182 6.34881 11.0114 6.31745C11.3995 6.18686 11.7939 6.16536 12.1907 6.27214C12.6993 6.40903 13.1913 6.58986 13.6594 6.82936C13.7149 6.85773 13.7667 6.89539 13.8148 6.93508C14.0051 7.09278 14.0033 7.26132 13.7994 7.40256C13.7132 7.46239 13.7044 7.50353 13.7674 7.58494C13.87 7.71767 13.8772 7.85533 13.803 7.94971C13.7196 8.05581 13.5727 8.08611 13.4131 8.02735C13.3651 8.00973 13.3135 7.99318 13.2741 7.96298C13.1218 7.84603 12.9759 7.87178 12.8113 7.94671C12.5684 8.05746 12.3221 8.17198 12.0648 8.23926C11.649 8.34788 11.2305 8.27557 10.821 8.17489C10.5181 8.10044 10.2195 8.00896 9.91779 7.92938C9.8445 7.91002 9.81549 7.87672 9.8139 7.80102C9.80826 7.52773 9.87758 7.44302 10.1607 7.45445C10.3523 7.46219 10.5522 7.48272 10.7308 7.54545C11.3107 7.74903 11.8698 7.71341 12.4288 7.47536C12.6091 7.39849 12.8036 7.35367 12.9914 7.29317C13.0126 7.28639 13.0317 7.27352 13.0755 7.25154V7.25164ZM11.524 7.03227C11.5691 6.98658 11.62 6.95279 11.6148 6.93663C11.6028 6.90023 11.5631 6.87254 11.5347 6.84137C11.509 6.87109 11.4731 6.89761 11.4619 6.93179C11.4557 6.95057 11.4915 6.98242 11.5241 7.03227H11.524Z" fill="#DB2727"/>
<path d="M3.63464 11.655C3.62355 11.4804 3.68832 11.3202 3.81905 11.1828C3.93215 11.0639 4.04941 10.9478 4.15161 10.8203C4.22371 10.7304 4.28234 10.6273 4.33047 10.5228C4.36325 10.4516 4.40574 10.428 4.48061 10.4176C4.66353 10.3925 4.78495 10.4581 4.8521 10.6259C4.88379 10.705 4.9234 10.7811 4.95559 10.86C5.11514 11.2516 5.41561 11.4874 5.83493 11.5309C6.25831 11.5748 6.68763 11.5612 7.11379 11.5824C7.39307 11.5962 7.67641 11.5998 7.93341 11.7369C7.96342 11.7529 8.01155 11.7512 8.04641 11.7415C8.36263 11.6525 8.68648 11.654 9.01132 11.6497C9.394 11.6445 9.78024 11.6537 10.1582 11.6053C10.6289 11.545 10.9608 11.2805 11.1146 10.826C11.1379 10.7569 11.1699 10.6887 11.2092 10.6268C11.2957 10.4909 11.4873 10.4792 11.5932 10.6011C11.6288 10.642 11.6595 10.6883 11.6851 10.7359C11.8007 10.9506 11.9486 11.138 12.1407 11.2943C12.1953 11.3388 12.2441 11.407 12.2636 11.4733C12.3548 11.782 12.2979 12.0655 12.0671 12.3003C11.9046 12.4657 11.7018 12.4232 11.616 12.2099C11.5786 12.1172 11.5642 12.0158 11.5356 11.9194C11.5114 11.8381 11.49 11.7543 11.4528 11.6785C11.3849 11.5407 11.2898 11.5009 11.1433 11.5514C10.677 11.712 10.2105 11.8719 9.74776 12.0419C8.63766 12.45 7.52657 12.4447 6.41598 12.0538C5.98101 11.9006 5.55268 11.7293 5.12147 11.5657C5.02194 11.5279 4.92469 11.4839 4.82357 11.4507C4.64075 11.3908 4.51923 11.4422 4.43733 11.6152C4.40099 11.692 4.37672 11.7744 4.35008 11.8552C4.33305 11.9066 4.32394 11.9605 4.3073 12.012C4.27521 12.1115 4.25104 12.2313 4.13012 12.2525C3.99088 12.2769 3.8649 12.2207 3.77121 12.1133C3.6595 11.9854 3.63029 11.8312 3.63464 11.6548V11.655Z" fill="#DB2727"/>
<path d="M7.87635 13.7088C7.34007 13.6851 6.84707 13.5415 6.39031 13.2836C6.07538 13.1058 5.7748 12.9036 5.46135 12.7231C5.25773 12.6057 5.04074 12.5107 4.83287 12.4001C4.7264 12.3435 4.61934 12.2837 4.52615 12.209C4.44029 12.1402 4.42791 12.0379 4.49337 11.9473C4.55636 11.8601 4.63103 11.7958 4.76305 11.8427C5.27605 12.0251 5.79084 12.2027 6.30712 12.3762C6.83696 12.5542 7.37879 12.6809 7.94181 12.6979C8.55108 12.7163 9.13857 12.592 9.71407 12.414C10.121 12.288 10.5198 12.1373 10.9237 12.0016C11.0086 11.973 11.0993 11.9473 11.1877 11.9457C11.3849 11.9422 11.4953 12.1049 11.3915 12.2676C11.3225 12.3758 11.2084 12.4713 11.0927 12.5337C10.7152 12.7371 10.3348 12.9384 9.94205 13.1109C9.5463 13.2847 9.14085 13.4437 8.72707 13.5696C8.45502 13.6523 8.16058 13.665 7.87615 13.7091L7.87635 13.7088Z" fill="#DB2727"/>
<path d="M6.86996 10.633C6.69506 10.6879 6.57582 10.5723 6.46718 10.4347C6.22038 10.1222 6.10282 9.77646 6.20166 9.38284C6.21711 9.32117 6.26782 9.24537 6.32308 9.22098C6.41033 9.18245 6.48332 9.2507 6.52521 9.3234C6.58701 9.43056 6.63752 9.54402 6.68991 9.65603C6.71616 9.71218 6.73567 9.77123 6.75904 9.82873C6.81925 9.97694 6.9173 10.0575 7.09309 10.0749C7.2668 10.0921 7.43971 10.1458 7.6054 10.204C7.75366 10.256 7.8621 10.3668 7.94143 10.5022C7.9959 10.5953 8.02433 10.5972 8.09177 10.5092C8.14376 10.4412 8.18942 10.3686 8.23646 10.2972C8.28311 10.2263 8.34322 10.1919 8.43424 10.1982C8.87475 10.2295 9.19899 10.0526 9.40628 9.67055C9.4655 9.56135 9.52958 9.45448 9.58791 9.34489C9.62525 9.2748 9.66952 9.27112 9.72963 9.31672C9.82679 9.39049 9.87898 9.48971 9.88234 9.60627C9.89472 10.0326 9.68358 10.3597 9.38112 10.6401C9.34785 10.671 9.27931 10.6689 9.22623 10.6755C9.0544 10.6966 8.88188 10.7127 8.71015 10.7347C8.62756 10.7453 8.5918 10.7924 8.59547 10.8792C8.59913 10.9673 8.57853 11.0562 8.57913 11.1446C8.58051 11.3584 8.43849 11.4523 8.26063 11.5117C8.06543 11.577 7.86923 11.5675 7.68324 11.4789C7.48646 11.3851 7.39307 11.2238 7.39267 11.0112C7.39208 10.6944 7.34464 10.6461 7.01534 10.6334C6.97583 10.6318 6.93631 10.6332 6.86996 10.6332V10.633Z" fill="#DB2727"/>
<path d="M11.6755 4.56805C12.2956 4.53436 12.7819 4.8211 13.2349 5.18306C13.3565 5.28026 13.4683 5.39149 13.5713 5.50756C13.632 5.57581 13.6835 5.6611 13.7096 5.74735C13.7907 6.01464 13.7349 6.11067 13.4257 6.13603C13.271 6.14871 13.138 6.08047 13.0276 5.98279C12.8991 5.86894 12.779 5.74542 12.6602 5.6216C12.1496 5.08877 11.5406 4.97086 10.8778 5.30969C10.6176 5.4427 10.3843 5.62721 10.144 5.79537C9.99198 5.90186 9.83867 6.00312 9.64337 5.94503C9.39232 5.8703 9.33101 5.78317 9.42292 5.5215C9.49769 5.30852 9.67814 5.18084 9.86888 5.07396C10.2846 4.84114 10.7317 4.69089 11.2045 4.61713C11.3602 4.59283 11.5183 4.58402 11.6754 4.56814L11.6755 4.56805Z" fill="#DB2727"/>
<path d="M4.54348 4.42243C5.28437 4.44867 5.91671 4.61682 6.46419 5.02661C6.66246 5.17501 6.81309 5.36263 6.84003 5.62149C6.85122 5.72885 6.81656 5.79468 6.7099 5.83727C6.51361 5.91559 6.32227 5.91114 6.16054 5.78161C5.96564 5.62546 5.7948 5.44094 5.60445 5.27898C5.49571 5.18644 5.37924 5.08866 5.24822 5.03745C4.80067 4.86262 4.36482 4.93338 3.9653 5.17472C3.70424 5.33242 3.46854 5.52972 3.21798 5.70436C3.09418 5.79071 2.9691 5.88035 2.83203 5.94182C2.71091 5.99613 2.59959 5.93079 2.51799 5.8363C2.43955 5.74531 2.44163 5.63369 2.50274 5.54317C2.58672 5.41887 2.68199 5.2968 2.7938 5.1965C3.15796 4.86968 3.55024 4.58188 4.05067 4.48546C4.23201 4.45051 4.4179 4.43792 4.54358 4.42224L4.54348 4.42243Z" fill="#DB2727"/>
<path d="M7.99729 9.59436C7.85151 9.57645 7.67503 9.55902 7.50023 9.53163C7.40238 9.51633 7.37594 9.46735 7.4008 9.35796C7.53657 8.75853 7.66027 8.15658 7.78496 7.55483C7.84071 7.2856 7.80021 7.32423 8.07177 7.32007C8.08365 7.31987 8.09553 7.32007 8.10732 7.32046C8.34966 7.32859 8.3562 7.33565 8.36828 7.57022C8.40017 8.19337 8.46672 8.81148 8.66004 9.40984C8.68807 9.49678 8.66252 9.53153 8.57309 9.53908C8.39215 9.55438 8.21151 9.57355 7.99739 9.59426L7.99729 9.59436Z" fill="#DB2727"/>
<path d="M11.7913 5.59187C12.1034 5.58809 12.38 5.66351 12.5819 5.91462C12.6732 6.02828 12.658 6.08955 12.5177 6.13738C12.4524 6.15964 12.3716 6.18249 12.3103 6.16458C11.7614 6.00407 11.2591 6.17833 10.751 6.34803C10.4904 6.43506 10.2195 6.49373 9.95048 6.55346C9.89136 6.56662 9.76855 6.53797 9.76479 6.51473C9.75251 6.43884 9.75766 6.33961 9.80094 6.28094C9.85798 6.2035 9.94939 6.13912 10.0399 6.09846C10.5184 5.88297 11.0061 5.69139 11.5318 5.61394C11.6175 5.60136 11.7048 5.59894 11.7913 5.59187Z" fill="#DB2727"/>
<path d="M4.33372 6.00214C4.1923 5.9941 4.04652 6.00378 3.91084 5.97212C3.81566 5.94986 3.73425 5.87125 3.64661 5.81781C3.70573 5.74163 3.75119 5.64763 3.82656 5.59264C4.02493 5.44791 4.26123 5.44298 4.49703 5.46234C4.9525 5.4999 5.3736 5.65799 5.79044 5.82624C5.93959 5.88645 6.08508 5.95828 6.22412 6.03834C6.34079 6.10553 6.43953 6.1973 6.46746 6.33806C6.48518 6.42751 6.45973 6.4762 6.35317 6.4763C6.09855 6.4763 5.86304 6.40224 5.6301 6.31414C5.4349 6.24038 5.24099 6.16313 5.0448 6.09207C4.81603 6.0092 4.57913 5.97251 4.33382 6.00214H4.33372Z" fill="#DB2727"/>
<path d="M8.87453 5.98695C8.86512 6.08608 8.86245 6.18647 8.84432 6.28415C8.8265 6.38018 8.76292 6.44068 8.65794 6.45007C8.55514 6.45927 8.47056 6.42829 8.41352 6.34107C8.29873 6.16546 8.32874 5.79362 8.47205 5.63834C8.5284 5.57726 8.59891 5.54154 8.68379 5.57949C8.78064 5.62276 8.86027 5.68384 8.86393 5.80059C8.86591 5.86226 8.86433 5.92393 8.86433 5.98569L8.87453 5.98704V5.98695Z" fill="#DB2727"/>
<path d="M7.91596 5.92043C7.9019 6.02324 7.89318 6.12702 7.87238 6.22847C7.85129 6.33138 7.78494 6.39808 7.6758 6.42044C7.54309 6.44754 7.47109 6.41279 7.43138 6.2852C7.37057 6.09004 7.38057 5.89642 7.4702 5.71045C7.51724 5.61278 7.58993 5.54433 7.71125 5.56447C7.83327 5.5847 7.9021 5.67309 7.90517 5.80339C7.90606 5.84192 7.90526 5.88054 7.90526 5.91907C7.90883 5.91956 7.9123 5.91995 7.91586 5.92043H7.91596Z" fill="#DB2727"/>
</g>
<defs>
<clipPath id="clip0_301_11401">
<rect width="16" height="16" fill="white"/>
</clipPath>
</defs>
</svg>
