<?xml version="1.0" standalone="no"?>
<!DOCTYPE svg PUBLIC "-//W3C//DTD SVG 20010904//EN"
 "http://www.w3.org/TR/2001/REC-SVG-20010904/DTD/svg10.dtd">
<svg version="1.0" xmlns="http://www.w3.org/2000/svg"
 width="512.000000pt" height="512.000000pt" viewBox="0 0 512.000000 512.000000"
 preserveAspectRatio="xMidYMid meet">
<metadata>
Created by potrace 1.14, written by Peter Selinger 2001-2017
</metadata>
<g transform="translate(0.000000,512.000000) scale(0.100000,-0.100000)"
fill="#000000" stroke="none">
<path d="M1995 4189 c-182 -9 -446 -33 -614 -55 -283 -37 -467 -182 -558 -439
l-28 -80 -3 -631 c-3 -720 -4 -716 74 -874 37 -74 62 -109 118 -165 120 -117
233 -163 466 -188 l115 -12 5 -393 5 -394 24 -19 c13 -10 37 -19 54 -19 28 0
72 40 383 351 l352 352 48 -12 c63 -14 273 -29 534 -37 l205 -6 260 -259 c234
-232 264 -259 293 -259 22 0 41 9 57 25 l25 24 0 245 0 245 58 6 c151 15 229
46 316 126 60 54 108 138 131 224 22 86 22 883 0 968 -30 117 -100 216 -195
277 l-50 32 0 167 c0 202 -14 274 -75 397 -72 147 -204 265 -349 314 -216 72
-1078 118 -1651 89z m1090 -174 c342 -29 476 -50 549 -84 125 -60 223 -178
258 -310 12 -47 17 -108 17 -215 l1 -148 -42 6 c-117 16 -549 28 -813 23 -349
-8 -548 -21 -633 -43 -151 -39 -275 -168 -317 -329 -22 -86 -22 -883 0 -968
20 -75 48 -131 98 -191 l40 -48 -257 -256 -256 -257 0 322 c0 406 21 367 -215
393 -94 11 -190 24 -215 30 -155 39 -297 187 -334 350 -14 58 -16 161 -16 659
0 392 4 608 11 643 34 165 155 303 311 357 80 28 393 61 803 85 150 9 833 -4
1010 -19z m550 -895 c336 -18 380 -30 464 -126 71 -81 72 -92 69 -585 -3 -430
-3 -434 -26 -480 -41 -82 -119 -146 -200 -164 -17 -3 -80 -10 -139 -14 -99 -7
-108 -10 -130 -35 -22 -26 -23 -33 -23 -209 l0 -181 -202 201 -203 200 -250 7
c-277 7 -477 20 -534 36 -92 24 -181 119 -201 214 -8 34 -10 188 -8 476 l3
425 27 51 c33 64 105 128 164 148 40 13 206 30 399 39 156 8 620 6 790 -3z"/>
</g>
</svg>
